<svg xmlns="http://www.w3.org/2000/svg" aria-hidden="true" style="position:absolute;width:0;height:0;overflow:hidden">
  <defs>
    <symbol id="icon-align-left" viewBox="0 0 32 32">
      <path stroke-linejoin="round" stroke-linecap="round" stroke-miterlimit="4" stroke-width="2.2857" d="M22.667 13.333h-18.667"></path>
      <path stroke-linejoin="round" stroke-linecap="round" stroke-miterlimit="4" stroke-width="2.2857" d="M28 8h-24"></path>
      <path stroke-linejoin="round" stroke-linecap="round" stroke-miterlimit="4" stroke-width="2.2857" d="M28 18.667h-24"></path>
      <path stroke-linejoin="round" stroke-linecap="round" stroke-miterlimit="4" stroke-width="2.2857" d="M22.667 24h-18.667"></path>
    </symbol>
    <symbol id="icon-x-close" viewBox="0 0 32 32">
      <path stroke-linejoin="round" stroke-linecap="round" stroke-miterlimit="4" stroke-width="3.4286" d="M24 8l-16 16M8 8l16 16"></path>
    </symbol>
    <symbol id="icon-fi-ss-caret-down" viewBox="0 0 28 32">
      <path fill="#fff" style="fill: var(--color1, #fff)" d="M5.898 12h16.513l-7.423 8.391c-0.221 0.25-0.521 0.39-0.834 0.39s-0.613-0.14-0.834-0.39l-7.422-8.391z"></path>
    </symbol>
    <symbol id="icon-uil-cart" viewBox="0 0 32 32">
      <path d="M25.333 9.333h-4v-1.333c0-1.415-0.562-2.771-1.562-3.771s-2.357-1.562-3.771-1.562c-1.414 0-2.771 0.562-3.771 1.562s-1.562 2.357-1.562 3.771v1.333h-4c-0.354 0-0.693 0.14-0.943 0.391s-0.391 0.589-0.391 0.943v14.667c0 1.061 0.421 2.078 1.172 2.828s1.768 1.172 2.828 1.172h13.333c1.061 0 2.078-0.421 2.828-1.172s1.172-1.768 1.172-2.828v-14.667c0-0.354-0.14-0.693-0.391-0.943s-0.589-0.391-0.943-0.391zM13.333 8c0-0.707 0.281-1.386 0.781-1.886s1.178-0.781 1.886-0.781c0.707 0 1.385 0.281 1.886 0.781s0.781 1.178 0.781 1.886v1.333h-5.333v-1.333zM24 25.333c0 0.354-0.14 0.693-0.391 0.943s-0.589 0.391-0.943 0.391h-13.333c-0.354 0-0.693-0.14-0.943-0.391s-0.391-0.589-0.391-0.943v-13.333h2.667v1.333c0 0.354 0.14 0.693 0.391 0.943s0.589 0.391 0.943 0.391c0.354 0 0.693-0.14 0.943-0.391s0.391-0.589 0.391-0.943v-1.333h5.333v1.333c0 0.354 0.14 0.693 0.39 0.943s0.589 0.391 0.943 0.391 0.693-0.14 0.943-0.391c0.25-0.25 0.391-0.589 0.391-0.943v-1.333h2.667v13.333z"></path>
    </symbol>
    <symbol id="icon-logo" viewBox="0 0 32 32">
      <path fill="#F6F6F6" style="fill: var(--color2, #F6F6F6)" d="M0 0l16.343 16.171 15.657 15.829v-32h-32z"></path>
      <path fill="#F6F6F6" style="fill: var(--color2, #F6F6F6)" d="M4.457 4.229l11.943 11.829 11.257 11.486h-23.2v-23.314z"></path>
      <path fill="#4F2EE8" style="fill: var(--color3, #4F2EE8)" d="M27.733 27.618l-11.943-11.829-11.257-11.486h23.2v23.314z"></path>
      <path fill="#4F2EE8" style="fill: var(--color3, #4F2EE8)" d="M9.257 9.029l13.6 13.6h-13.6v-13.6z"></path>
      <path fill="#F6F6F6" style="fill: var(--color2, #F6F6F6)" d="M9.257 9.029l13.6 13.6v-13.6h-13.6z"></path>
    </symbol>
    <symbol id="logotype" viewBox="0 0 35 32">
      <path d="M34.352 7.713A16.665 16.665 0 0 0 32 6.712v19.742a16.089 16.089 0 0 0-5.6-1.017c-3.04 0-6.048.886-8.8 2.593V8.174c-2.592-1.526-5.584-2.429-8.8-2.429-2.864 0-5.568.722-7.952 1.969C.32 7.977 0 8.551 0 9.158v19.824a1.6 1.6 0 0 0 1.6 1.625c.256 0 .512-.066.768-.197 1.936-1.034 4.112-1.69 6.432-1.69 3.312 0 6.368 1.346 8.8 3.282 2.432-1.936 5.488-3.282 8.8-3.282 2.32 0 4.496.656 6.432 1.707.256.131.512.197.768.197.832 0 1.6-.673 1.6-1.625V9.159c0-.607-.32-1.182-.848-1.444zM14.4 26.453c-1.824-.673-3.696-1.017-5.6-1.017s-3.776.345-5.6 1.017V10.19a13.941 13.941 0 0 1 5.6-1.165c1.92 0 3.824.41 5.6 1.182v16.246zM28.8 0l-8 8.205v15.59l8-7.385V0z"/>
    </symbol>
    <symbol id="bookshelf" viewBox="0 0 176 32">
      <path d="M22.176 8.533c0-4.731-3.497-7.406-9.545-7.406H0v29.417h13.33c6.089 0 9.998-2.921 9.998-8.599 0-4.402-2.633-6.665-5.719-7.2v-.082c2.427-.823 4.567-2.51 4.567-6.13zm-17.28 4.772V5.282h7.858c2.921 0 4.526 1.44 4.526 4.032s-1.317 3.991-4.814 3.991h-7.57zm0 3.662h8.599c3.086 0 4.937 1.687 4.937 4.69 0 2.757-1.275 4.731-5.472 4.731H4.896v-9.422zM35.89 31.161c-6.583 0-10.574-4.567-10.574-11.109S29.307 8.943 35.89 8.943s10.574 4.567 10.574 11.109-3.991 11.109-10.574 11.109zm0-3.538c4.114 0 6.254-3.25 6.254-7.57 0-4.361-2.139-7.57-6.254-7.57s-6.254 3.209-6.254 7.57c0 4.32 2.139 7.57 6.254 7.57zM58.912 31.161c-6.583 0-10.574-4.567-10.574-11.109S52.329 8.943 58.912 8.943s10.574 4.567 10.574 11.109-3.991 11.109-10.574 11.109zm0-3.538c4.114 0 6.254-3.25 6.254-7.57 0-4.361-2.139-7.57-6.254-7.57s-6.254 3.209-6.254 7.57c0 4.32 2.139 7.57 6.254 7.57zM72.472 1.127v29.417h4.32v-7.611l2.921-2.757 6.624 10.368h5.184l-8.846-13.207 7.982-7.817H85.35l-8.558 8.434V1.127h-4.32zM101.935 17.831c-3.045-.699-5.39-.864-5.39-3.003 0-1.481 1.399-2.469 3.991-2.469 3.374 0 4.197 1.687 4.485 3.333h4.197c-.288-3.662-3.003-6.747-8.722-6.747-5.266 0-8.311 2.757-8.311 6.213 0 4.773 4.526 5.431 7.858 6.213 3.086.741 5.595.946 5.595 3.579 0 1.317-1.275 2.798-4.279 2.798-4.443 0-5.431-1.934-5.637-4.197h-4.197c.206 4.443 3.127 7.611 9.915 7.611 5.102 0 8.558-2.51 8.558-6.542 0-5.019-4.197-5.883-8.064-6.789zM124.123 8.944c-3.538 0-5.719 1.646-6.83 3.291h-.082V1.126h-4.32v29.417h4.32V17.748c0-3.127 2.263-5.143 5.431-5.143 3.003 0 4.197 1.81 4.197 4.649v13.289h4.361V16.02c0-4.814-3.086-7.077-7.077-7.077zM144.448 27.623c-3.826 0-6.089-2.921-6.089-6.459h16.128c0-7.488-3.333-12.219-10.121-12.219-6.336 0-10.327 4.279-10.327 11.109 0 6.583 3.991 11.109 10.533 11.109 5.39 0 8.517-3.045 9.586-7.035h-4.32c-.37 1.275-1.81 3.497-5.39 3.497zm-.082-15.264c3.497 0 5.801 2.345 5.801 5.595h-11.808c0-3.25 2.51-5.595 6.007-5.595zM157.531 1.127v29.417h4.361V1.127h-4.361zM176.003 4.665V1.127a15.12 15.12 0 0 0-2.88-.288c-3.456 0-5.349 1.563-5.349 6.007V9.52h-3.003v3.538h3.003v17.486h4.361V13.058h3.867V9.52h-3.867V7.216c0-2.386 1.07-2.674 3.867-2.551z"/>
    </symbol>
    <symbol id="burger-menu" viewBox="0 0 32 32">
      <path stroke-linecap="round" stroke-linejoin="round" stroke-width="2.286" d="M22.667 13.333H4M28 8H4M28 18.667H4M22.667 24H4"/>
    </symbol>
    <symbol id="arrow-right" viewBox="0 0 32 32">
      <path fill="none" stroke="#eac645" style="stroke: var(--color1, #eac645)" stroke-linejoin="round" stroke-linecap="round" stroke-miterlimit="4" stroke-width="3.2" d="M5.333 16h21.333M26.666 16l-8-8M26.666 16l-8 8"></path>
    </symbol>
    <symbol id="arrow-small-left-down" viewBox="0 0 32 32">
      <path d="M15.053 17.867a1.334 1.334 0 0 0 1.894 0l6.107-6.12a1.334 1.334 0 1 1 1.894 1.88l-6.12 6.12a4.001 4.001 0 0 1-5.654 0l-6.12-6.12a1.337 1.337 0 0 1 .434-2.172 1.331 1.331 0 0 1 1.46.292l6.107 6.12z"/>
    </symbol>
    <symbol id="lock" viewBox="0 0 32 32">
      <path stroke-linecap="round" stroke-linejoin="round" stroke-width="2.286" d="M22.667 14.667v-4a6.667 6.667 0 0 0-13.334 0v4M10.4 28h11.2c2.24 0 3.36 0 4.216-.436a3.991 3.991 0 0 0 1.748-1.748C28 24.96 28 23.84 28 21.6v-.533c0-2.24 0-3.36-.436-4.216a3.991 3.991 0 0 0-1.748-1.748c-.856-.436-1.976-.436-4.216-.436H10.4c-2.24 0-3.36 0-4.216.436a3.996 3.996 0 0 0-1.748 1.748C4 17.707 4 18.827 4 21.067v.533c0 2.24 0 3.36.436 4.216a3.991 3.991 0 0 0 1.748 1.748C7.04 28 8.16 28 10.4 28z"/>
    </symbol>
    <symbol id="mail" viewBox="0 0 32 32">
      <path stroke-linecap="round" stroke-linejoin="round" stroke-width="2.286" d="m28.666 24-8.857-8m-7.619 0-8.857 8M2.667 9.333l10.887 7.621c.882.617 1.322.926 1.802 1.045.423.106.866.106 1.29 0 .479-.12.92-.428 1.802-1.045l10.887-7.621M9.067 26.667h13.867c2.24 0 3.36 0 4.216-.436a3.996 3.996 0 0 0 1.748-1.748c.436-.856.436-1.976.436-4.216v-8.533c0-2.24 0-3.36-.436-4.216A3.991 3.991 0 0 0 27.15 5.77c-.856-.436-1.976-.436-4.216-.436H9.067c-2.24 0-3.36 0-4.216.436a3.991 3.991 0 0 0-1.748 1.748c-.436.856-.436 1.976-.436 4.216v8.533c0 2.24 0 3.36.436 4.216a3.996 3.996 0 0 0 1.748 1.748c.856.436 1.976.436 4.216.436z"/>
    </symbol>
    <symbol id="user-fill" viewBox="0 0 32 32">
      <path d="M5.333 29.333a10.662 10.662 0 0 1 18.208-7.543c2 2 3.124 4.714 3.124 7.543H5.332zm10.667-12c-4.42 0-8-3.58-8-8s3.58-8 8-8 8 3.58 8 8-3.58 8-8 8z"/>
    </symbol>
    <symbol id="scroll-up" viewBox="0 0 32 32">
      <path d="M4.5 19.6 15.7 8.367c.133-.133.278-.228.433-.283s.322-.084.5-.084.345.028.5.084.3.149.433.283L28.799 19.6c.311.311.467.7.467 1.167s-.167.867-.5 1.2c-.333.333-.722.5-1.167.5s-.833-.167-1.167-.5l-9.8-9.8-9.8 9.8c-.311.311-.694.467-1.149.467s-.851-.167-1.184-.5-.5-.722-.5-1.167c0-.444.167-.833.5-1.167z"/>
    </symbol>
    <symbol id="trash-shopping-list" viewBox="0 0 32 32">
      <path stroke-linecap="round" stroke-linejoin="round" stroke-width="2.667" d="M12 4h8M4 8h24m-2.667 0-.935 14.026c-.14 2.104-.21 3.156-.665 3.954a4.007 4.007 0 0 1-1.731 1.62c-.826.4-1.881.4-3.99.4h-4.025c-2.109 0-3.163 0-3.99-.4a4.001 4.001 0 0 1-1.731-1.62c-.455-.798-.525-1.85-.665-3.954L6.666 8m6.667 6v6.667M18.667 14v6.667"/>
    </symbol>
    <symbol id="trash" viewBox="0 0 32 32">
      <path stroke-linecap="round" stroke-linejoin="round" stroke-width="2.909" d="M12 4h8M4 8h24m-2.667 0-.935 14.026c-.14 2.104-.21 3.157-.665 3.954a4 4 0 0 1-1.731 1.619c-.826.4-1.881.4-3.99.4h-4.025c-2.109 0-3.163 0-3.99-.4a4.005 4.005 0 0 1-1.731-1.619c-.455-.798-.525-1.85-.665-3.954L6.666 8m6.667 6v6.667M18.667 14v6.667"/>
    </symbol>
    <symbol id="gerb" viewBox="0 0 20 32">
      <path fill="#fff" style="fill: var(--color1, #fff)" d="M9.005 30.888c-1.738-1.262-2.991-3.156-3.414-5.351h-5.591v-23.117c2.991 1.443 5.153 4.599 5.388 7.876l0.846 6.493-0.407-0.045c-0.893 0-1.676 0.812-1.676 1.608 0 0.752 0.595 1.383 1.378 1.548l1.018 0.226c1.676-3.051 2.631-6.042 2.631-8.973 0-2.645-0.36-5.291-0.423-7.996 0-1.202 0.486-2.3 1.253-3.156 0.783 0.857 1.253 1.954 1.253 3.156 0 2.705-0.423 5.351-0.423 7.996 0 2.931 0.955 5.922 2.631 8.973l1.018-0.226c0.783-0.165 1.378-0.812 1.378-1.548 0-0.812-0.783-1.608-1.676-1.608l-0.423 0.060 0.846-6.493c0.423-3.277 2.396-6.448 5.388-7.876v23.117h-5.576c-0.423 2.179-1.613 4.148-3.414 5.351-0.423 0.286-0.783 0.631-1.018 1.097-0.219-0.466-0.579-0.812-0.987-1.112zM2.647 17.556c0.235-0.857 0.893-1.608 1.738-2.074l-0.658-5.351c-0.235-1.668-0.955-3.156-2.036-4.374v11.784h0.955v0.015zM5.466 23.929c0-0.812 0.125-1.548 0.298-2.3l-0.783-0.18c-1.143-0.346-2.036-1.203-2.334-2.3h-0.955v4.78h3.774zM9.178 23.929c0-0.977-0.783-1.834-1.801-1.954-0.172 0.631-0.298 1.263-0.298 1.954h2.099zM9.178 25.552h-1.864c0.298 1.263 0.955 2.42 1.864 3.397v-3.397zM11.809 20.547c-0.72-1.262-1.378-2.585-1.801-3.968-0.423 1.383-1.081 2.706-1.801 3.968 0.72 0.165 1.316 0.631 1.801 1.157 0.486-0.526 1.081-0.992 1.801-1.157zM12.952 23.929c0-0.691-0.125-1.323-0.297-1.954-1.018 0.12-1.801 0.977-1.801 1.954h2.099zM12.717 25.552h-1.864v3.397c0.908-0.992 1.566-2.134 1.864-3.397zM18.34 23.929v-4.78h-0.955c-0.298 1.097-1.206 1.954-2.334 2.3l-0.783 0.18c0.172 0.752 0.298 1.488 0.298 2.3h3.774zM18.34 17.556v-11.799c-1.081 1.202-1.864 2.706-2.036 4.374l-0.658 5.351c0.846 0.466 1.504 1.203 1.739 2.074h0.955z"></path>
    </symbol>
    <symbol id="fav-icon" viewBox="0 0 32 32">
      <path fill="#f6f6f6" style="fill: var(--color1, #f6f6f6)" d="M0 0l16.343 16.171 15.657 15.829v-32h-32z"></path>
      <path fill="#f6f6f6" style="fill: var(--color1, #f6f6f6)" d="M4.457 4.229l11.943 11.829 11.257 11.486h-23.2v-23.314z"></path>
      <path fill="#4f2ee8" style="fill: var(--color2, #4f2ee8)" d="M27.733 27.618l-11.943-11.829-11.257-11.486h23.2v23.314z"></path>
      <path fill="#4f2ee8" style="fill: var(--color2, #4f2ee8)" d="M9.257 9.029l13.6 13.6h-13.6v-13.6z"></path>
      <path fill="#f6f6f6" style="fill: var(--color1, #f6f6f6)" d="M9.257 9.029l13.6 13.6v-13.6h-13.6z"></path>
    </symbol>
    <symbol id="plug-1" viewBox="0 0 23 32">
      <path fill="#fff" style="fill: var(--color3, #fff)" d="M1 0h20.5c0.552 0 1 0.448 1 1v30c0 0.552-0.448 1-1 1h-20.5c-0.552 0-1-0.448-1-1v-30c0-0.552 0.448-1 1-1z"></path>
      <path fill="#4f2ee8" style="fill: var(--color2, #4f2ee8)" d="M13.867 14.955c-0.117-0.062-0.24-0.113-0.367-0.156v3.085c-0.285-0.105-0.578-0.159-0.875-0.159-0.475 0-0.945 0.139-1.375 0.405v-3.103c-0.405-0.238-0.873-0.38-1.375-0.38-0.447 0-0.87 0.113-1.242 0.308-0.082 0.041-0.133 0.131-0.133 0.226v3.098c0 0.149 0.117 0.254 0.25 0.254 0.040 0 0.080-0.010 0.12-0.031 0.303-0.162 0.643-0.264 1.005-0.264 0.518 0 0.995 0.21 1.375 0.513 0.38-0.303 0.857-0.513 1.375-0.513 0.363 0 0.703 0.103 1.005 0.267 0.040 0.020 0.080 0.031 0.12 0.031 0.13 0 0.25-0.105 0.25-0.254v-3.1c0-0.095-0.050-0.185-0.133-0.226zM10.75 17.883c-0.285-0.105-0.578-0.159-0.875-0.159s-0.59 0.054-0.875 0.159v-2.541c0.277-0.12 0.57-0.182 0.875-0.182 0.3 0 0.598 0.064 0.875 0.185v2.539zM13 13.75l-1.25 1.282v2.436l1.25-1.154v-2.564z"></path>
    </symbol>
    <symbol id="plug-2" viewBox="0 0 23 32">
      <path fill="#fff" style="fill: var(--color3, #fff)" d="M1.552 0h19.394c0.857 0 1.552 0.695 1.552 1.552v28.897c0 0.857-0.695 1.552-1.552 1.552h-19.394c-0.857 0-1.552-0.695-1.552-1.552v-28.897c0-0.857 0.695-1.552 1.552-1.552z"></path>
      <path fill="#4f2ee8" style="fill: var(--color2, #4f2ee8)" d="M14.202 14.978c-0.133-0.072-0.271-0.131-0.415-0.182v3.589c-0.322-0.122-0.652-0.185-0.987-0.185-0.536 0-1.066 0.161-1.552 0.471v-3.61c-0.457-0.277-0.985-0.442-1.552-0.442-0.505 0-0.982 0.131-1.402 0.358-0.093 0.048-0.149 0.152-0.149 0.263v3.604c0 0.173 0.133 0.295 0.282 0.295 0.045 0 0.090-0.012 0.135-0.036 0.341-0.188 0.725-0.307 1.134-0.307 0.584 0 1.123 0.245 1.552 0.597 0.429-0.352 0.968-0.597 1.552-0.597 0.409 0 0.793 0.119 1.134 0.31 0.045 0.024 0.090 0.036 0.135 0.036 0.147 0 0.282-0.122 0.282-0.295v-3.607c0-0.11-0.056-0.215-0.149-0.263zM10.684 18.385c-0.322-0.122-0.652-0.185-0.987-0.185s-0.666 0.063-0.987 0.185v-2.957c0.313-0.14 0.643-0.212 0.987-0.212 0.339 0 0.674 0.075 0.987 0.215v2.954zM13.223 13.576l-1.41 1.492v2.835l1.41-1.343v-2.984z"></path>
    </symbol>
    <symbol id="plug-3" viewBox="0 0 22 32">
      <path fill="#fff" style="fill: var(--color3, #fff)" d="M0.81 0h20.456c0.447 0 0.81 0.363 0.81 0.81v30.38c0 0.447-0.363 0.81-0.81 0.81h-20.456c-0.447 0-0.81-0.363-0.81-0.81v-30.38c0-0.447 0.363-0.81 0.81-0.81z"></path>
      <path fill="#4f2ee8" style="fill: var(--color2, #4f2ee8)" d="M13.93 14.786c-0.13-0.067-0.265-0.123-0.406-0.171v3.374c-0.315-0.115-0.638-0.174-0.967-0.174-0.525 0-1.044 0.151-1.519 0.443v-3.393c-0.447-0.261-0.964-0.415-1.519-0.415-0.494 0-0.961 0.123-1.373 0.336-0.091 0.045-0.146 0.143-0.146 0.247v3.388c0 0.163 0.13 0.278 0.276 0.278 0.044 0 0.088-0.011 0.133-0.034 0.334-0.177 0.71-0.289 1.11-0.289 0.572 0 1.099 0.23 1.519 0.561 0.42-0.331 0.947-0.561 1.519-0.561 0.4 0 0.776 0.112 1.11 0.292 0.044 0.022 0.088 0.034 0.133 0.034 0.144 0 0.276-0.115 0.276-0.278v-3.39c0-0.104-0.055-0.202-0.146-0.247zM10.486 17.989c-0.315-0.115-0.638-0.174-0.967-0.174s-0.652 0.059-0.967 0.174v-2.779c0.307-0.132 0.63-0.199 0.967-0.199 0.331 0 0.66 0.070 0.967 0.202v2.776zM12.971 13.468l-1.381 1.402v2.664l1.381-1.262v-2.804z"></path>
    </symbol>
    <symbol id="plug-4" viewBox="0 0 22 32">
      <path fill="#fff" style="fill: var(--color3, #fff)" d="M0.528 0h21.047c0.291 0 0.528 0.236 0.528 0.528v30.944c0 0.291-0.236 0.528-0.528 0.528h-21.047c-0.291 0-0.528-0.236-0.528-0.528v-30.944c0-0.291 0.236-0.528 0.528-0.528z"></path>
      <path fill="#4f2ee8" style="fill: var(--color2, #4f2ee8)" d="M13.782 14.798c-0.124-0.065-0.253-0.119-0.388-0.165v3.256c-0.301-0.111-0.61-0.168-0.924-0.168-0.501 0-0.998 0.146-1.452 0.428v-3.275c-0.428-0.252-0.921-0.401-1.452-0.401-0.472 0-0.918 0.119-1.312 0.325-0.087 0.043-0.14 0.138-0.14 0.238v3.27c0 0.157 0.124 0.268 0.264 0.268 0.042 0 0.084-0.011 0.127-0.032 0.319-0.171 0.678-0.279 1.061-0.279 0.546 0 1.050 0.222 1.452 0.541 0.401-0.319 0.905-0.541 1.452-0.541 0.383 0 0.742 0.108 1.061 0.282 0.042 0.022 0.084 0.032 0.127 0.032 0.137 0 0.264-0.111 0.264-0.268v-3.273c0-0.1-0.053-0.195-0.14-0.238zM10.491 17.889c-0.301-0.111-0.61-0.168-0.924-0.168s-0.623 0.057-0.924 0.168v-2.682c0.293-0.127 0.602-0.192 0.924-0.192 0.317 0 0.631 0.068 0.924 0.195v2.68zM12.866 13.526l-1.32 1.353v2.571l1.32-1.218v-2.707z"></path>
    </symbol>
    <symbol id="user" viewBox="0 0 32 32">
      <path style="fill: var(--color1, #f6f6f6)" d="M32 16c0 8.837-7.163 16-16 16s-16-7.163-16-16c0-8.837 7.163-16 16-16s16 7.163 16 16z"></path>
      <path style="fill: var(--color2, #4f2ee8)" d="M10.522 22.847c0-1.453 0.577-2.846 1.604-3.873s2.421-1.604 3.873-1.604c1.453 0 2.846 0.577 3.873 1.604s1.604 2.42 1.604 3.873h-10.955zM16 16.685c-2.27 0-4.108-1.838-4.108-4.108s1.838-4.108 4.108-4.108c2.27 0 4.108 1.838 4.108 4.108s-1.838 4.108-4.108 4.108z"></path>
    </symbol>

  </defs>
</svg>
